name Walk3.mot
datacolumns 19
datarows 15
range 1.27600000 1.29000000
endheader

                time	   L_ground_force_vx	   L_ground_force_vy	   L_ground_force_vz	   L_ground_force_px	   L_ground_force_py	   L_ground_force_pz	   R_ground_force_vx	   R_ground_force_vy	   R_ground_force_vz	   R_ground_force_px	   R_ground_force_py	   R_ground_force_pz	   L_ground_torque_x	   L_ground_torque_y	   L_ground_torque_z	   R_ground_torque_x	   R_ground_torque_y	   R_ground_torque_z	
          1.27600000	          0.00000000	          0.00000000	          0.00000000	          0.00000000	          0.00000000	          0.00000000	          0.00000000	          0.00000000	          0.00000000	          0.00000000	          0.00000000	          0.00000000	          0.00000000	          0.00000000	          0.00000000	          0.00000000	          0.00000000	          0.00000000	
          1.27700000	          0.00000000	          0.00000000	          0.00000000	          0.00000000	          0.00000000	          0.00000000	          0.00000000	          0.00000000	          0.00000000	          0.00000000	          0.00000000	          0.00000000	          0.00000000	          0.00000000	          0.00000000	          0.00000000	          0.00000000	          0.00000000	
          1.27800000	          0.00000000	          0.00000000	          0.00000000	          0.00000000	          0.00000000	          0.00000000	          0.00000000	          0.00000000	          0.00000000	          0.00000000	          0.00000000	          0.00000000	          0.00000000	          0.00000000	          0.00000000	          0.00000000	          0.00000000	          0.00000000	
          1.27900000	          0.00000000	          0.00000000	          0.00000000	          0.00000000	          0.00000000	          0.00000000	          0.00000000	          0.00000000	          0.00000000	          0.00000000	          0.00000000	          0.00000000	          0.00000000	          0.00000000	          0.00000000	          0.00000000	          0.00000000	          0.00000000	
          1.28000000	          0.00000000	          0.00000000	          0.00000000	          0.00000000	          0.00000000	          0.00000000	          0.00000000	          0.00000000	          0.00000000	          0.00000000	          0.00000000	          0.00000000	          0.00000000	          0.00000000	          0.00000000	          0.00000000	          0.00000000	          0.00000000	
          1.28100000	          0.00000000	          0.00000000	          0.00000000	          0.00000000	          0.00000000	          0.00000000	          0.00000000	          0.00000000	          0.00000000	          0.00000000	          0.00000000	          0.00000000	          0.00000000	          0.00000000	          0.00000000	          0.00000000	          0.00000000	          0.00000000	
          1.28200000	          0.00000000	          0.00000000	          0.00000000	          0.00000000	          0.00000000	          0.00000000	         -3.08739645	          7.78804196	          0.30268127	         -0.47397478	          0.00000000	         -0.01166168	          0.00000000	          0.00000000	          0.00000000	          0.00000000	         -0.05165899	          0.00000000	
          1.28300000	          0.00000000	          0.00000000	          0.00000000	          0.00000000	          0.00000000	          0.00000000	         -5.79427924	         17.88494442	          0.41156647	         -0.47080092	          0.00000000	         -0.00852669	          0.00000000	          0.00000000	          0.00000000	          0.00000000	         -0.04480651	          0.00000000	
          1.28400000	          0.00000000	          0.00000000	          0.00000000	          0.00000000	          0.00000000	          0.00000000	         -9.12855474	         32.35883084	          0.45566372	         -0.46906578	          0.00000000	         -0.00732409	          0.00000000	          0.00000000	          0.00000000	          0.00000000	         -0.01781024	          0.00000000	
          1.28500000	          0.00000000	          0.00000000	          0.00000000	          0.00000000	          0.00000000	          0.00000000	        -12.92214474	         51.66267402	          0.39539236	         -0.46791452	          0.00000000	         -0.00723214	          0.00000000	          0.00000000	          0.00000000	          0.00000000	          0.02815058	          0.00000000	
          1.28600000	          0.00000000	          0.00000000	          0.00000000	          0.00000000	          0.00000000	          0.00000000	        -17.01722256	         76.20977134	          0.19443945	         -0.46716156	          0.00000000	         -0.00773930	          0.00000000	          0.00000000	          0.00000000	          0.00000000	          0.08310762	          0.00000000	
          1.28700000	          0.00000000	          0.00000000	          0.00000000	          0.00000000	          0.00000000	          0.00000000	        -21.14718714	        105.79446269	         -0.21287659	         -0.46671053	          0.00000000	         -0.00827682	          0.00000000	          0.00000000	          0.00000000	          0.00000000	          0.13584162	          0.00000000	
          1.28800000	          0.00000000	          0.00000000	          0.00000000	          0.00000000	          0.00000000	          0.00000000	        -24.91027017	        139.05538012	         -0.92926153	         -0.46645464	          0.00000000	         -0.00851096	          0.00000000	          0.00000000	          0.00000000	          0.00000000	          0.17894358	          0.00000000	
          1.28900000	          0.00000000	          0.00000000	          0.00000000	          0.00000000	          0.00000000	          0.00000000	        -27.89534265	        173.45239472	         -2.06333793	         -0.46627930	          0.00000000	         -0.00843378	          0.00000000	          0.00000000	          0.00000000	          0.00000000	          0.20932953	          0.00000000	
          1.29000000	          0.00000000	          0.00000000	          0.00000000	          0.00000000	          0.00000000	          0.00000000	        -29.84831729	        205.83903930	         -3.68252840	         -0.46609904	          0.00000000	         -0.00820139	          0.00000000	          0.00000000	          0.00000000	          0.00000000	          0.22671792	          0.00000000	
